PathFileType	4	(X/Y/Z)	 s09c0102.trc
DataRate	CameraRate	NumFrames	NumMarkers	Units	OrigDataRate	OrigDataStartFrame	OrigNumFrames
200	200	4	50	mm	200	1	2000
Frame#	Time	racr			lacr			c7			jug			rlel			rdr			llel			ldr			s2			lic			ric			lasi			rasi			rpsi			lpsi			rgt			lgt			rth1			rth2			rth3			rth4			rlfc			rmfc			rsh1			rsh2			rsh3			rsh4			rlmal			rmmal			rcal			rtoe			rmt5			lth1			lth2			lth4			lth3			llfc			lmfc			llmal			lmmal			lcal			lmt5			lsh1			lsh2			lsh3			lsh4			ltoe			SBIKE			LBIKE			RBIKE			
		X1	Y1	Z1	X2	Y2	Z2	X3	Y3	Z3	X4	Y4	Z4	X5	Y5	Z5	X6	Y6	Z6	X7	Y7	Z7	X8	Y8	Z8	X9	Y9	Z9	X10	Y10	Z10	X11	Y11	Z11	X12	Y12	Z12	X13	Y13	Z13	X14	Y14	Z14	X15	Y15	Z15	X16	Y16	Z16	X17	Y17	Z17	X18	Y18	Z18	X19	Y19	Z19	X20	Y20	Z20	X21	Y21	Z21	X22	Y22	Z22	X23	Y23	Z23	X24	Y24	Z24	X25	Y25	Z25	X26	Y26	Z26	X27	Y27	Z27	X28	Y28	Z28	X29	Y29	Z29	X30	Y30	Z30	X31	Y31	Z31	X32	Y32	Z32	X33	Y33	Z33	X34	Y34	Z34	X35	Y35	Z35	X36	Y36	Z36	X37	Y37	Z37	X38	Y38	Z38	X39	Y39	Z39	X40	Y40	Z40	X41	Y41	Z41	X42	Y42	Z42	X43	Y43	Z43	X44	Y44	Z44	X45	Y45	Z45	X46	Y46	Z46	X47	Y47	Z47	X48	Y48	Z48	X49	Y49	Z49	X50	Y50	Z50	
1	0.0050	497.445234	1293.726756	-82.591422	513.175679	1282.064030	-405.680478	486.203788	1320.052027	-239.126610	472.412715	1188.881359	-243.818675	523.957029	1056.826255	17.206413	703.519122	882.151063	-36.264229	498.217562	1027.771007	-525.890224	686.669424	878.161139	-448.496940	16.013892	1117.288480	-240.349205	150.360572	1116.974417	-388.435336	161.684855	1122.020007	-93.551027	194.195070	1060.233343	-365.453589	206.490318	1067.676542	-115.082353	45.574988	1148.118750	-181.320551	41.451589	1154.670627	-291.224428	136.925081	975.934396	-49.400194	117.211925	995.192384	-431.688374	230.909869	872.931555	-52.732579	303.913300	825.077845	-61.642566	338.631351	743.192089	-67.523993	326.877958	844.474966	-83.581498	376.740156	643.276306	-100.461273	357.470882	630.854711	-197.597081	287.702235	590.127649	-69.966307	233.446208	518.903484	-84.731081	152.167528	486.245223	-83.566384	248.295409	501.139185	-118.058761	72.388418	424.413463	-85.954972	79.774694	434.027977	-164.221517	-17.531186	427.998893	-124.837319	215.228477	303.403601	-124.335537	134.008438	325.452313	-60.274041	229.144752	915.870379	-433.260249	312.575684	896.531002	-428.793524	329.859816	926.707778	-412.604924	378.218978	834.831897	-427.723608	455.957282	761.207284	-411.321351	477.263437	751.561183	-311.630620	363.480821	407.357062	-408.075748	381.033072	418.583953	-337.522154	291.382807	373.523546	-370.927620	457.146860	322.118212	-433.135078	433.021774	662.503111	-431.343582	433.769555	575.971902	-419.624741	389.504155	498.937605	-416.597324	458.335489	573.151967	-388.920772	548.937744	335.288260	-365.303308	-65.229992	853.083025	-238.681570	20.747653	84.482196	-442.080603	21.243737	83.783076	-43.692277	
2	0.0100	497.479871	1293.684272	-82.573084	513.194221	1282.043690	-405.677282	486.232616	1320.013910	-239.111161	472.430044	1188.852635	-243.779982	523.950437	1056.808877	17.223710	703.539548	882.132105	-36.253899	498.226414	1027.778192	-525.912966	686.675146	878.173274	-448.515242	16.024328	1117.293429	-240.356295	150.383039	1116.974063	-388.435436	161.683796	1122.007303	-93.562388	194.228329	1060.212003	-365.476098	206.478193	1067.644749	-115.049310	45.577354	1148.138602	-181.298144	41.475394	1154.685238	-291.214180	136.937155	975.915934	-49.400764	117.224087	995.197333	-431.687073	230.921671	872.905072	-52.722633	303.903493	825.052993	-61.644621	338.618811	743.163271	-67.544909	326.883436	844.441764	-83.598640	376.709764	643.273186	-100.472986	357.440442	630.836124	-197.591184	287.709357	590.097809	-69.973434	233.420693	518.888223	-84.728984	152.170444	486.221911	-83.585957	248.312161	501.134227	-118.046755	72.383532	424.394887	-85.965508	79.754590	434.042781	-164.218745	-17.569277	427.984588	-124.858975	215.234510	303.399224	-124.330544	134.018304	325.434902	-60.293324	229.142821	915.883138	-433.277803	312.589311	896.550289	-428.794500	329.847262	926.734115	-412.626205	378.222622	834.849999	-427.726886	455.965915	761.233617	-411.327313	477.286013	751.585623	-311.621715	363.496213	407.369352	-408.076818	381.044349	418.592095	-337.544455	291.403093	373.545588	-370.911210	457.141889	322.115458	-433.131651	433.030675	662.529122	-431.344120	433.775548	575.993652	-419.638143	389.508392	498.966658	-416.590068	458.344153	573.144388	-388.911955	548.955905	335.286392	-365.305716	-65.228401	853.084858	-238.694522	20.765906	84.473375	-442.073836	21.256088	83.784838	-43.681190	
3	0.0150	497.508094	1293.647322	-82.555380	513.236083	1282.046905	-405.674172	486.251521	1320.021646	-239.122341	472.483161	1188.847013	-243.763839	523.946408	1056.781713	17.235795	703.528369	882.129767	-36.245942	498.634345	1028.208198	-526.783856	686.683991	878.177213	-448.506089	16.062234	1117.314918	-240.357255	150.404084	1116.953368	-388.441370	161.727466	1122.001458	-93.570998	194.261127	1060.196887	-365.503317	206.512675	1067.623609	-115.077604	45.592660	1148.152264	-181.293857	41.507712	1154.677393	-291.221552	136.944842	975.917822	-49.408419	117.240192	995.212659	-431.679312	230.897039	872.904895	-52.718116	303.893263	825.039425	-61.641082	338.619616	743.152012	-67.543725	326.886286	844.431208	-83.606645	376.687423	643.242478	-100.477840	357.424775	630.834944	-197.615010	287.645412	590.016840	-70.033817	233.413366	518.870557	-84.730780	152.159926	486.190787	-83.589898	248.276142	501.136734	-118.047510	72.369457	424.385010	-85.959670	79.726912	434.022233	-164.205890	-17.587060	427.954588	-124.849168	215.223955	303.385673	-124.346098	134.004453	325.428540	-60.279861	229.156249	915.892738	-433.263247	312.598733	896.560761	-428.792534	329.854147	926.736260	-412.609651	378.234307	834.865012	-427.731253	455.976784	761.261697	-411.337689	477.305098	751.607104	-311.635169	363.502040	407.396940	-408.072281	381.081935	418.638477	-337.529254	291.405974	373.577755	-370.908224	457.147419	322.139634	-433.143160	433.048836	662.554719	-431.365248	433.791038	576.021392	-419.635333	389.540169	498.981417	-416.594602	458.347402	573.183679	-388.930950	548.959268	335.266903	-365.284584	-65.231163	853.084284	-238.685310	20.777678	84.601652	-441.971400	21.255476	83.782716	-43.692528	
4	0.0200	497.536050	1293.631624	-82.550772	513.048357	1281.979868	-405.678071	486.278539	1320.007909	-239.128137	472.538858	1188.842508	-243.778963	524.103117	1056.512398	17.447081	703.347478	881.412410	-36.731750	498.574042	1027.516739	-525.377901	686.679131	878.183000	-448.512994	16.935301	1117.489596	-238.765044	150.454354	1116.957320	-388.451699	161.230873	1121.950535	-94.327554	194.320218	1060.164871	-365.486888	206.519083	1067.592941	-115.056170	45.994644	1148.017886	-181.077944	41.905029	1154.517528	-291.002760	137.150761	975.839056	-49.220014	117.254070	995.215335	-431.691536	230.941176	872.970098	-52.582102	303.801003	825.102867	-61.672936	338.591623	743.150421	-67.543571	326.648546	843.900931	-84.131910	376.679214	643.230922	-100.472202	357.413168	630.832283	-197.607455	287.577793	589.964232	-70.085318	234.525617	518.796380	-84.092574	152.089099	486.156315	-83.516046	251.024893	503.261780	-116.627794	72.104438	424.068461	-86.274726	79.687062	434.017325	-164.196719	-17.904723	428.384123	-124.844752	215.228429	303.400075	-124.317600	133.994040	325.409953	-60.285093	229.176908	915.900529	-433.244583	312.604720	896.575495	-428.792201	329.643518	927.074432	-412.423821	378.232932	834.872533	-427.718597	455.968712	761.533499	-411.140802	477.309680	751.614133	-311.663830	363.242473	407.891343	-408.264290	381.948564	418.646568	-338.395339	291.413150	373.601212	-370.928754	457.172319	322.152192	-433.131851	433.058778	662.562445	-431.363805	434.019611	575.759426	-419.491213	389.547423	499.008554	-416.600404	458.378047	573.004653	-388.729864	548.963217	335.292448	-365.300321	-65.217817	853.077492	-238.679475	20.781537	84.473072	-442.071090	21.254574	83.774529	-43.679956	
